# xmcd
#
# Track frame offsets: 
#        150
#        21390
#        37665
#        54385
#        70885
#        90326
#        109759
#        129933
#        161253
#        180077
#        196597
#        216600
#
# Disc length: 3257 seconds
#
# Revision: 0
# Processed by: cddbd v1.5.2PL0 Copyright (c) Steve Scherf et al.
# Submitted via: ExactAudioCopy v1.3
#
DISCID=8e0cb70c
DTITLE=JJ Grey and Mofro - Orange Blossoms
DYEAR=2008
DGENRE=Blues
TTITLE0=Orange Blossoms
TTITLE1=The Devil you know
TTITLE2=Everything good is bad
TTITLE3=She don't know
TTITLE4=The truth
TTITLE5=Wylf
TTITLE6=On fire
TTITLE7=Move it on
TTITLE8=Higher you climb
TTITLE9=Dew drops
TTITLE10=Ybor City
TTITLE11=I believe
EXTD=
EXTT0=
EXTT1=
EXTT2=
EXTT3=
EXTT4=
EXTT5=
EXTT6=
EXTT7=
EXTT8=
EXTT9=
EXTT10=
EXTT11=
PLAYORDER=
